<svg xmlns="http://www.w3.org/2000/svg" viewBox="0 0 512 512"><defs><style>.cls-1{fill:#ff637b;}.cls-2{fill:#ffda2d;}</style></defs><g><g><path class="cls-1" d="M458.15,138.75l19.71-19.7c-3.2-5.25-.08-15,2-23.91-8.22,2-16.28,3.76-20.28-.23-3.49-3.49-2.56-10.11-1-17.22-8.85,2.14,5-19.67.69-24-4.8-4.79-24.14,8.73-21.92-1-7.4,1.79-14.66,3.39-18.95.78L392.57,79.32A60,60,0,0,0,379.24,144,60,60,0,0,0,458.15,138.75Z"/><path class="cls-1" d="M415.7,181.21l-21.43-21.42H272.09l-64,64,.08.08H415.52l.18-.17A30,30,0,0,0,415.7,181.21Z"/><path class="cls-2" d="M146.09,286.62H352.73l62.79-62.79H208.9Z"/><path class="cls-2" d="M267.86,159.79H394.27L344.48,110a30,30,0,0,0-33.15,6.32Z"/><path class="cls-1" d="M141.35,294.87l-.47.47a30,30,0,0,0,0,42.46L154,350.9H288.35l0,.05,56.09-56.08Z"/><path class="cls-2" d="M288.4,351l-63.73,63.74a30,30,0,0,1-42.46,0L118.48,351l.06-.06H288.35Z"/><path class="cls-1" d="M76.87,390.5,51.23,416.14a6.63,6.63,0,0,1,1.23.95c3.67,3.67,2.47,10.77.71,18.28,8.56-2.08-7.3,19.44-3.14,23.6,4.62,4.62,26-8.91,23.74.55,8.51-2.06,17-4.11,21.14,0,3.67,3.67,2.47,10.78.71,18.28,8.57-2.08,17.15-4.18,21.3,0a6.68,6.68,0,0,1,1,1.23l21.88-21.88a60.06,60.06,0,0,0,5.77-78.21A60.05,60.05,0,0,0,76.87,390.5Z"/><path d="M3,424.18c8.11,8.1,20.08,5.2,30.64,2.64,3.3-.8,8.45-2.05,11.29-2.14-.09,2.84-1.34,8-2.14,11.27-2.56,10.57-5.47,22.55,2.65,30.66s20.09,5.22,30.66,2.66c3.31-.81,8.44-2,11.27-2.14-.08,2.84-1.33,8-2.13,11.29C82.62,489,79.72,501,87.82,509.06h0A10,10,0,0,0,94,512c.32,0,.64,0,1,0s.64,0,1,0a10,10,0,0,0,6.11-2.89l44.85-44.85a69.55,69.55,0,0,0,20.52-49.52c0-.25,0-.49,0-.74l7.8,7.81a40,40,0,0,0,56.61,0c.1-.11,192-191.93,192.15-192.22a40,40,0,0,0-1.12-55.41l-7.84-7.85.77,0a69.85,69.85,0,0,0,49.53-20.48L509.07,102a10,10,0,0,0,0-14.15h0c-8.11-8.1-20.08-5.2-30.64-2.64-3.31.81-8.45,2.06-11.29,2.14.09-2.83,1.33-8,2.14-11.27,2.56-10.57,5.47-22.55-2.65-30.66s-20.1-5.22-30.67-2.66c-3.3.81-8.43,2.05-11.27,2.14.09-2.83,1.33-8,2.14-11.29,2.56-10.56,5.46-22.52-2.64-30.64h0a10,10,0,0,0-14.15,0L366.17,46.78a69.59,69.59,0,0,0-20.52,49.53c0,.24,0,.49,0,.73l-7.8-7.8a40,40,0,0,0-56.6,0C272.36,98.14,88.78,281.6,88.5,282.12a40,40,0,0,0,1.73,54.75l7.81,7.8-.73,0h0a69.59,69.59,0,0,0-49.53,20.52L2.93,410a10,10,0,0,0,0,14.15Zm99.37-127.31h226l-44,44H122.57l-18.19-18.19A20,20,0,0,1,102.32,296.87Zm62.65-63h77.88a10,10,0,1,0,0-20H185l44-44H390.12l18.5,18.5a20,20,0,0,1,2.29,25.53h-78a10,10,0,1,0,0,20h58.46l-43,43H121.94Zm52.62,173.79a20,20,0,0,1-28.3,0l-46.71-46.71H264.29ZM380.32,60.93l25.55-25.55c-1.79,8.73-2.33,17.67,4.15,24.16,8.12,8.12,20.09,5.21,30.65,2.65,3.31-.81,8.45-2,11.29-2.14-.09,2.84-1.34,8-2.14,11.28-2.57,10.57-5.47,22.54,2.64,30.65,4,4,9,5.34,14.24,5.34a50.11,50.11,0,0,0,9.92-1.19l-25.55,25.55a50.1,50.1,0,0,1-63,6.37l13.44-13.44a10,10,0,1,0-14.16-14.15L374,123.9A50.05,50.05,0,0,1,380.32,60.93Zm-84.89,42.45a20,20,0,0,1,28.28,0l46.4,46.39H249ZM61.93,379.32a50,50,0,0,1,63-6.37l-13.44,13.44a10,10,0,1,0,14.15,14.16l13.44-13.44a50,50,0,0,1-6.37,63l-26.55,26.55c1.8-8.72,2.34-17.67-4.14-24.16-8.12-8.11-20.09-5.21-30.65-2.64-3.31.8-8.45,2.05-11.29,2.13.09-2.83,1.34-8,2.14-11.28,2.56-10.56,5.47-22.53-2.65-30.65-6.49-6.48-15.43-5.94-24.16-4.15Z"/><path d="M297.89,223.83a10,10,0,1,1-10-10A10,10,0,0,1,297.89,223.83Z"/></g></g></svg>