<svg xmlns="http://www.w3.org/2000/svg" viewBox="0 0 512 512"><g fill="currentColor"><g><path d="M3,424.18c8.11,8.1,20.08,5.2,30.64,2.64,3.3-.8,8.45-2.05,11.29-2.14-.09,2.84-1.34,8-2.14,11.27-2.56,10.57-5.47,22.55,2.65,30.66s20.09,5.22,30.66,2.66c3.31-.81,8.44-2,11.27-2.14-.08,2.84-1.33,8-2.13,11.29C82.62,489,79.72,501,87.82,509.06h0A10,10,0,0,0,94,512c.32,0,.64,0,1,0s.64,0,1,0a10,10,0,0,0,6.11-2.89l44.85-44.85a69.55,69.55,0,0,0,20.52-49.52c0-.25,0-.49,0-.74l7.8,7.81a40,40,0,0,0,56.61,0c.1-.11,192-191.93,192.15-192.22a40,40,0,0,0-1.12-55.41l-7.84-7.85.77,0a69.85,69.85,0,0,0,49.53-20.48L509.07,102a10,10,0,0,0,0-14.15h0c-8.11-8.1-20.08-5.2-30.64-2.64-3.31.81-8.45,2.06-11.29,2.14.09-2.83,1.33-8,2.14-11.27,2.56-10.57,5.47-22.55-2.65-30.66s-20.1-5.22-30.67-2.66c-3.3.81-8.43,2.05-11.27,2.14.09-2.83,1.33-8,2.14-11.29,2.56-10.56,5.46-22.52-2.64-30.64h0a10,10,0,0,0-14.15,0L366.17,46.78a69.59,69.59,0,0,0-20.52,49.53c0,.24,0,.49,0,.73l-7.8-7.8a40,40,0,0,0-56.6,0C272.36,98.14,88.78,281.6,88.5,282.12a40,40,0,0,0,1.73,54.75l7.81,7.8-.73,0h0a69.59,69.59,0,0,0-49.53,20.52L2.93,410a10,10,0,0,0,0,14.15Zm99.37-127.31h226l-44,44H122.57l-18.19-18.19A20,20,0,0,1,102.32,296.87Zm62.65-63h77.88a10,10,0,1,0,0-20H185l44-44H390.12l18.5,18.5a20,20,0,0,1,2.29,25.53h-78a10,10,0,1,0,0,20h58.46l-43,43H121.94Zm52.62,173.79a20,20,0,0,1-28.3,0l-46.71-46.71H264.29ZM380.32,60.93l25.55-25.55c-1.79,8.73-2.33,17.67,4.15,24.16,8.12,8.12,20.09,5.21,30.65,2.65,3.31-.81,8.45-2,11.29-2.14-.09,2.84-1.34,8-2.14,11.28-2.57,10.57-5.47,22.54,2.64,30.65,4,4,9,5.34,14.24,5.34a50.11,50.11,0,0,0,9.92-1.19l-25.55,25.55a50.1,50.1,0,0,1-63,6.37l13.44-13.44a10,10,0,1,0-14.16-14.15L374,123.9A50.05,50.05,0,0,1,380.32,60.93Zm-84.89,42.45a20,20,0,0,1,28.28,0l46.4,46.39H249ZM61.93,379.32a50,50,0,0,1,63-6.37l-13.44,13.44a10,10,0,1,0,14.15,14.16l13.44-13.44a50,50,0,0,1-6.37,63l-26.55,26.55c1.8-8.72,2.34-17.67-4.14-24.16-8.12-8.11-20.09-5.21-30.65-2.64-3.31.8-8.45,2.05-11.29,2.13.09-2.83,1.34-8,2.14-11.28,2.56-10.56,5.47-22.53-2.65-30.65-6.49-6.48-15.43-5.94-24.16-4.15Z"/><path d="M297.89,223.83a10,10,0,1,1-10-10A10,10,0,0,1,297.89,223.83Z"/></g></g></svg>