<svg xmlns="http://www.w3.org/2000/svg" viewBox="0 0 347 375.31"><defs><style>.cls-1{fill:#ffa73b;}.cls-2{fill:#0c2e3a;}.cls-3{fill:#78001b;}.cls-4{fill:#f5340b;}.cls-5{fill:#ff823b;}.cls-6{fill:#018790;}.cls-7{fill:#e3651d;}.cls-8{fill:#00a6a6;}.cls-9{fill:#1dcdc3;}.cls-10{fill:none;}.cls-11{fill:#ffd497;}.cls-12{fill:#ff7c4e;}.cls-13{fill:#f54132;}</style></defs><title>Asset 2</title><g id="Layer_2"><g id="Layer_1-2"><g><polygon class="cls-1" points="347 174.65 347 232.42 297 203.54 297 203.51 347 174.65"/><polygon class="cls-2" points="297 203.6 297 260.78 296.95 260.8 247.44 232.21 297 203.6"/><polygon class="cls-3" points="297 203.51 297 203.6 247.04 232.44 247 232.42 247 174.65 297 203.51"/><polygon class="cls-1" points="297 88.75 297 146.52 247 117.64 247 117.62 297 88.75"/><polygon class="cls-4" points="297 146.29 297 146.33 247.06 175.15 247 175.12 247 117.41 297 146.29"/><polygon class="cls-4" points="297 146.33 297 203.51 247.47 174.92 297 146.33"/><polygon class="cls-5" points="346.55 174.91 297 203.51 297 146.33 297.04 146.31 346.55 174.91"/><polygon class="cls-6" points="297 260.54 297 318.32 247 289.44 247 289.41 297 260.54"/><polygon class="cls-6" points="297 318.08 297 318.13 247.06 346.95 247 346.91 247 289.2 297 318.08"/><polygon class="cls-7" points="297 318.12 297 375.31 247.47 346.71 297 318.12"/><polygon class="cls-1" points="347 289.41 347 289.5 297.04 318.34 297 318.31 297 260.55 347 289.41"/><polygon class="cls-1" points="347 174.65 347 232.42 297 203.54 297 203.51 347 174.65"/><polygon class="cls-8" points="297.55 260.8 248 289.41 248 232.23 248.04 232.21 297.55 260.8"/><polygon class="cls-2" points="297 203.6 297 260.78 296.95 260.8 247.44 232.21 297 203.6"/><polygon class="cls-1" points="297 203.51 297 203.6 247.04 232.44 247 232.42 247 174.65 297 203.51"/><polygon class="cls-3" points="248 174.65 248 232.42 198 203.54 198 203.51 248 174.65"/><polygon class="cls-3" points="248 232.18 248 232.23 198.06 261.05 198 261.01 198 203.3 248 232.18"/><polygon class="cls-3" points="297 203.51 297 203.6 247.04 232.44 247 232.42 247 174.65 297 203.51"/><polygon class="cls-3" points="198 203.6 198 260.78 197.95 260.8 148.44 232.21 198 203.6"/><polygon class="cls-4" points="198 203.51 198 203.6 148.04 232.44 148 232.42 148 174.65 198 203.51"/><polygon class="cls-9" points="198 88.75 198 146.52 148 117.64 148 117.62 198 88.75"/><polygon class="cls-2" points="198 146.29 198 146.33 148.06 175.15 148 175.12 148 117.41 198 146.29"/><polygon class="cls-2" points="198 146.33 198 203.51 148.47 174.92 198 146.33"/><polygon class="cls-6" points="247.55 174.91 198 203.51 198 146.33 198.04 146.31 247.55 174.91"/><polygon class="cls-6" points="248 117.7 248 174.88 247.95 174.91 198.44 146.31 248 117.7"/><polygon class="cls-6" points="230 0 230 16.6 229.99 16.61 215.61 8.31 230 0"/><polygon class="cls-9" points="248 60.29 248 60.38 198.04 89.22 198 89.19 198 31.43 248 60.29"/><polygon class="cls-3" points="198 260.54 198 318.32 148 289.44 148 289.41 198 260.54"/><polygon class="cls-3" points="198 318.08 198 318.13 148.06 346.95 148 346.91 148 289.2 198 318.08"/><polygon class="cls-8" points="198 318.12 198 375.31 148.47 346.71 198 318.12"/><polygon class="cls-8" points="247.55 346.7 198 375.31 198 318.12 198.04 318.11 247.55 346.7"/><polygon class="cls-2" points="248 289.5 248 346.68 247.95 346.7 198.44 318.11 248 289.5"/><polygon class="cls-2" points="248 289.41 248 289.5 198.04 318.34 198 318.31 198 260.55 248 289.41"/><polygon class="cls-4" points="248 174.65 248 232.42 198 203.54 198 203.51 248 174.65"/><polygon class="cls-4" points="248 232.18 248 232.23 198.06 261.05 198 261.01 198 203.3 248 232.18"/><polygon class="cls-8" points="248 232.23 248 289.41 198.47 260.82 248 232.23"/><polygon class="cls-5" points="297.55 260.8 248 289.41 248 232.23 248.04 232.21 297.55 260.8"/><polygon class="cls-1" points="297 203.51 297 203.6 247.04 232.44 247 232.42 247 174.65 297 203.51"/><polygon class="cls-4" points="197.55 260.8 148 289.41 148 232.23 148.04 232.21 197.55 260.8"/><polygon class="cls-4" points="198 203.6 198 260.78 197.95 260.8 148.44 232.21 198 203.6"/><polygon class="cls-10" points="198 203.51 198 203.6 148.04 232.44 148 232.42 148 174.65 198 203.51"/><polygon class="cls-4" points="149 174.65 149 232.42 99 203.54 99 203.51 149 174.65"/><polygon class="cls-7" points="149 232.18 149 232.23 99.06 261.05 99 261.01 99 203.3 149 232.18"/><polygon class="cls-1" points="198 203.51 198 203.6 148.04 232.44 148 232.42 148 174.65 198 203.51"/><polygon class="cls-11" points="99 88.75 99 146.52 49 117.64 49 117.62 99 88.75"/><polygon class="cls-5" points="148.55 174.91 99 203.51 99 146.33 99.04 146.31 148.55 174.91"/><polygon class="cls-5" points="65.14 174.91 42 188.27 42 161.56 42.02 161.56 65.14 174.91"/><polygon class="cls-11" points="64.81 93.4 49 102.53 49 84.28 49.01 84.28 64.81 93.4"/><polygon class="cls-5" points="148 117.7 148 174.88 147.95 174.91 98.44 146.31 148 117.7"/><polygon class="cls-1" points="149 117.62 149 117.7 99.04 146.54 99 146.52 99 88.75 149 117.62"/><polygon class="cls-12" points="99 260.54 99 318.32 49 289.44 49 289.41 99 260.54"/><polygon class="cls-13" points="148.55 346.7 99 375.31 99 318.12 99.04 318.11 148.55 346.7"/><polygon class="cls-13" points="49.55 346.7 0 375.31 0 318.12 0.04 318.11 49.55 346.7"/><polygon class="cls-13" points="148 289.5 148 346.68 147.95 346.7 98.44 318.11 148 289.5"/><polygon class="cls-13" points="149 289.41 149 289.5 99.04 318.34 99 318.31 99 260.55 149 289.41"/><polygon class="cls-1" points="149 174.65 149 232.42 99 203.54 99 203.51 149 174.65"/><polygon class="cls-1" points="149 232.18 149 232.23 99.06 261.05 99 261.01 99 203.3 149 232.18"/><polygon class="cls-7" points="148 232.23 148 289.41 98.47 260.82 148 232.23"/><polygon class="cls-3" points="197.55 260.8 148 289.41 148 232.23 148.04 232.21 197.55 260.8"/><polygon class="cls-1" points="198 203.51 198 203.6 148.04 232.44 148 232.42 148 174.65 198 203.51"/></g></g></g></svg>