<svg xmlns="http://www.w3.org/2000/svg" viewBox="0 0 332.32 343.65"><defs><style>.pattern-one-cls-1{fill:#ffa73b;}.pattern-one-cls-2{fill:#0c2e3a;}.pattern-one-cls-3{fill:#78001b;}.pattern-one-cls-4{fill:#f5340b;}.pattern-one-cls-5{fill:#ff823b;}.pattern-one-cls-6{fill:#018790;}.pattern-one-cls-7{fill:#e3651d;}.pattern-one-cls-8{fill:#00a6a6;}.pattern-one-cls-9{fill:#1dcdc3;}.pattern-one-cls-10{fill:none;}.pattern-one-cls-11{fill:#ffd497;}.pattern-one-cls-12{fill:#ff7c4e;}.pattern-one-cls-13{fill:#f54132;}</style></defs><title>Asset 1</title><g id="Layer_2"><g id="Layer_1-2"><g><polygon class="pattern-one-cls-1" points="0 200.43 0 143.13 49.59 171.77 49.59 171.79 0 200.43"/><polygon class="pattern-one-cls-2" points="49.59 171.71 49.59 114.53 49.65 114.5 99.16 143.1 49.59 171.71"/><polygon class="pattern-one-cls-3" points="49.59 171.79 49.59 171.71 99.16 143.1 99.19 143.13 99.19 200.43 49.59 171.79"/><polygon class="pattern-one-cls-1" points="49.6 286.32 49.6 229.02 99.19 257.67 99.19 257.69 49.6 286.32"/><polygon class="pattern-one-cls-4" points="49.6 229.02 49.6 228.98 99.13 200.39 99.19 200.43 99.19 257.67 49.6 229.02"/><polygon class="pattern-one-cls-4" points="49.6 228.98 49.6 171.79 99.13 200.39 49.6 228.98"/><polygon class="pattern-one-cls-5" points="0.05 200.4 49.6 171.79 49.6 228.98 49.56 229 0.05 200.4"/><polygon class="pattern-one-cls-6" points="49.6 114.53 49.6 57.23 99.19 85.87 99.19 85.9 49.6 114.53"/><polygon class="pattern-one-cls-6" points="49.6 57.23 49.6 57.19 99.13 28.59 99.19 28.63 99.19 85.87 49.6 57.23"/><polygon class="pattern-one-cls-7" points="49.6 57.19 49.6 0 99.13 28.59 49.6 57.19"/><polygon class="pattern-one-cls-1" points="0 85.9 0 85.81 49.56 57.2 49.6 57.23 49.6 114.53 0 85.9"/><polygon class="pattern-one-cls-1" points="0 200.43 0 143.13 49.59 171.77 49.59 171.79 0 200.43"/><polygon class="pattern-one-cls-8" points="49.65 114.5 99.19 85.9 99.19 143.08 99.16 143.1 49.65 114.5"/><polygon class="pattern-one-cls-2" points="49.59 171.71 49.59 114.53 49.65 114.5 99.16 143.1 49.59 171.71"/><polygon class="pattern-one-cls-1" points="49.59 171.79 49.59 171.71 99.16 143.1 99.19 143.13 99.19 200.43 49.59 171.79"/><polygon class="pattern-one-cls-3" points="99.19 200.43 99.19 143.13 148.79 171.77 148.79 171.79 99.19 200.43"/><polygon class="pattern-one-cls-3" points="99.19 143.13 99.19 143.08 148.72 114.49 148.79 114.53 148.79 171.77 99.19 143.13"/><polygon class="pattern-one-cls-3" points="49.59 171.79 49.59 171.71 99.16 143.1 99.19 143.13 99.19 200.43 49.59 171.79"/><polygon class="pattern-one-cls-3" points="148.79 171.71 148.79 114.53 148.84 114.5 198.35 143.1 148.79 171.71"/><polygon class="pattern-one-cls-4" points="148.79 171.79 148.79 171.71 198.35 143.1 198.38 143.13 198.38 200.43 148.79 171.79"/><polygon class="pattern-one-cls-9" points="148.79 286.32 148.79 229.02 198.38 257.67 198.38 257.69 148.79 286.32"/><polygon class="pattern-one-cls-2" points="148.79 229.02 148.79 228.98 198.32 200.39 198.38 200.43 198.38 257.67 148.79 229.02"/><polygon class="pattern-one-cls-2" points="165.24 291.03 165.24 291.01 181.91 281.39 181.93 281.4 181.93 300.67 165.24 291.03"/><polygon class="pattern-one-cls-2" points="148.79 228.98 148.79 171.79 198.32 200.39 148.79 228.98"/><polygon class="pattern-one-cls-6" points="99.24 200.4 148.79 171.79 148.79 228.98 148.75 229 99.24 200.4"/><polygon class="pattern-one-cls-6" points="99.19 257.61 99.19 200.43 99.24 200.4 148.75 229 99.19 257.61"/><polygon class="pattern-one-cls-9" points="99.19 315.02 99.19 314.93 148.75 286.32 148.79 286.35 148.79 343.65 99.19 315.02"/><polygon class="pattern-one-cls-3" points="148.79 114.53 148.79 57.23 198.38 85.87 198.38 85.9 148.79 114.53"/><polygon class="pattern-one-cls-3" points="148.79 57.23 148.79 57.19 198.32 28.59 198.38 28.63 198.38 85.87 148.79 57.23"/><polygon class="pattern-one-cls-8" points="148.79 57.19 148.79 0 198.32 28.59 148.79 57.19"/><polygon class="pattern-one-cls-8" points="99.24 28.61 148.79 0 148.79 57.19 148.75 57.2 99.24 28.61"/><polygon class="pattern-one-cls-2" points="99.19 85.81 99.19 28.63 99.24 28.61 148.75 57.2 99.19 85.81"/><polygon class="pattern-one-cls-2" points="99.19 85.9 99.19 85.81 148.75 57.2 148.79 57.23 148.79 114.53 99.19 85.9"/><polygon class="pattern-one-cls-4" points="99.19 200.43 99.19 143.13 148.79 171.77 148.79 171.79 99.19 200.43"/><polygon class="pattern-one-cls-4" points="99.19 143.13 99.19 143.08 148.72 114.49 148.79 114.53 148.79 171.77 99.19 143.13"/><polygon class="pattern-one-cls-8" points="99.19 143.08 99.19 85.9 148.72 114.49 99.19 143.08"/><polygon class="pattern-one-cls-5" points="49.65 114.5 99.19 85.9 99.19 143.08 99.16 143.1 49.65 114.5"/><polygon class="pattern-one-cls-1" points="49.59 171.79 49.59 171.71 99.16 143.1 99.19 143.13 99.19 200.43 49.59 171.79"/><polygon class="pattern-one-cls-4" points="148.84 114.5 198.38 85.9 198.38 143.08 198.35 143.1 148.84 114.5"/><polygon class="pattern-one-cls-4" points="148.79 171.71 148.79 114.53 148.84 114.5 198.35 143.1 148.79 171.71"/><polygon class="pattern-one-cls-10" points="148.79 171.79 148.79 171.71 198.35 143.1 198.38 143.13 198.38 200.43 148.79 171.79"/><polygon class="pattern-one-cls-4" points="198.38 200.43 198.38 143.13 247.98 171.77 247.98 171.79 198.38 200.43"/><polygon class="pattern-one-cls-7" points="198.38 143.13 198.38 143.08 247.91 114.49 247.98 114.53 247.98 171.77 198.38 143.13"/><polygon class="pattern-one-cls-1" points="148.79 171.79 148.79 171.71 198.35 143.1 198.38 143.13 198.38 200.43 148.79 171.79"/><polygon class="pattern-one-cls-1" points="247.98 171.71 247.98 114.53 248.03 114.5 297.54 143.1 247.98 171.71"/><polygon class="pattern-one-cls-11" points="312.19 154.72 312.19 131.5 312.21 131.49 332.32 143.1 312.19 154.72"/><polygon class="pattern-one-cls-11" points="247.98 286.32 247.98 229.02 297.57 257.67 297.57 257.69 247.98 286.32"/><polygon class="pattern-one-cls-5" points="198.43 200.4 247.98 171.79 247.98 228.98 247.94 229 198.43 200.4"/><polygon class="pattern-one-cls-5" points="198.38 257.61 198.38 200.43 198.43 200.4 247.94 229 198.38 257.61"/><polygon class="pattern-one-cls-1" points="198.38 257.69 198.38 257.61 247.94 229 247.98 229.02 247.98 286.32 198.38 257.69"/><polygon class="pattern-one-cls-12" points="247.98 114.53 247.98 57.23 297.57 85.87 297.57 85.9 247.98 114.53"/><polygon class="pattern-one-cls-13" points="198.43 28.61 247.98 0 247.98 57.19 247.94 57.2 198.43 28.61"/><polygon class="pattern-one-cls-13" points="198.38 85.81 198.38 28.63 198.43 28.61 247.94 57.2 198.38 85.81"/><polygon class="pattern-one-cls-13" points="198.38 85.9 198.38 85.81 247.94 57.2 247.98 57.23 247.98 114.53 198.38 85.9"/><polygon class="pattern-one-cls-1" points="198.38 200.43 198.38 143.13 247.98 171.77 247.98 171.79 198.38 200.43"/><polygon class="pattern-one-cls-1" points="198.38 143.13 198.38 143.08 247.91 114.49 247.98 114.53 247.98 171.77 198.38 143.13"/><polygon class="pattern-one-cls-7" points="198.38 143.08 198.38 85.9 247.91 114.49 198.38 143.08"/><polygon class="pattern-one-cls-3" points="148.84 114.5 198.38 85.9 198.38 143.08 198.35 143.1 148.84 114.5"/><polygon class="pattern-one-cls-1" points="148.79 171.79 148.79 171.71 198.35 143.1 198.38 143.13 198.38 200.43 148.79 171.79"/></g></g></g></svg>