<svg xmlns="http://www.w3.org/2000/svg" viewBox="0 0 1096.03 339.75"><g fill="currentColor"><path d="M190.64 135.5a34.11 34.11 0 0 0-33.85 35.07c.29 18.19 16 33.28 34.41 33 18.87-.27 34.39-16 33.91-34.32-.49-19.07-15.74-34-34.47-33.75zM606.17 230.87q-20.91-31.63-41.9-63.24c-2.28-3.45-2.25-3.39 1.85-4.08 11.85-2 22.23-7 29.56-16.63 13.5-17.69 14.56-37.35 5.62-57-8.57-18.84-25.17-27-45.14-27.54-22.9-.65-45.83-.15-68.74-.33-3.25 0-4.23.69-4.21 4.11.15 27.32.08 54.65.08 82 0 27.58 0 55.16-.05 82.74 0 2.71.53 3.82 3.5 3.66a134.5 134.5 0 0 1 14.34 0c3.12.17 4-.74 4-3.93-.15-20.4 0-40.8-.14-61.2 0-2.86.78-3.62 3.59-3.56q13.59.27 27.2 0a5.56 5.56 0 0 1 5.43 3c13.31 20.9 26.77 41.71 40.08 62.61 1.36 2.14 2.7 3.17 5.35 3.07 5.91-.22 11.84 0 17.75-.09 1.09 0 2.61.57 3.18-.37.78-1.26-.7-2.24-1.35-3.22zm-75.51-84v.1c-7.55 0-15.11-.07-22.67.05-2.24 0-3-.51-3-2.92q.14-30 0-60.08c0-2.32.64-3 3-3 14.86.15 29.74-.28 44.58.3 13.41.53 24.25 6.41 29.34 19.44s3.43 25.57-6.3 36.2c-5.88 6.42-13.65 9.4-22.22 9.8-7.6.41-15.17.14-22.73.14zM874.55 144.59c-.29-15.52-8-26.94-22.54-33.32-10.78-4.75-22.16-5.35-33.64-4.34a62.49 62.49 0 0 0-39.6 18.28c-1.08 1.07-2.25 1.94-.93 3.76 2.71 3.77 5.24 7.66 8.37 12.3a27.61 27.61 0 0 1 2.49-3.41c12.42-12.14 27.28-16.54 44.3-13.62 11.46 2 20.17 9.64 21.89 19.65 1.55 9 .63 18.19.79 27.28-.54 0-.69.05-.77 0a5.32 5.32 0 0 1-.89-.67c-13.83-13.8-30.84-17.51-49.37-14.36-15.55 2.64-27.31 11.08-32.07 26.81s-2.28 30.11 9.62 41.84c12.1 11.92 27.13 14.49 43.38 11.65 11.5-2 21.31-7.27 30.1-16.34 0 4.38.11 7.76 0 11.13-.11 2.32.39 3.44 3.06 3.31 4.4-.22 8.82-.18 13.22 0 2.4.1 2.94-.81 2.93-3-.14-29.03.2-58-.34-86.95zm-28.28 72c-11.73 7.05-24.3 8.92-37.32 4.92-12.83-3.93-19.52-15-18.24-28.63 1.08-11.59 10.84-21.4 23.4-23.19 12.13-1.73 23.51.34 33.77 7.39 5.23 3.6 9.14 7.84 7.84 14.92a25.23 25.23 0 0 0 0 4.52 13.68 13.68 0 0 0 0 2.64c1.62 8.38-2.88 13.44-9.45 17.4zM1012.84 217.86c-13.11 15.64-30.24 21-49.92 19.34-35.42-3-56.49-31.54-56.44-64.88 0-22.08 7.51-40.9 25.7-54.44 21.61-16.09 60.15-16.34 79.49 6.85 2.17 2.6 2.83 4.15-.3 6.42a87.64 87.64 0 0 0-8.09 7.36c-1.15 1.09-1.87 1.51-3.19-.13C988.42 124 973.08 121 956.22 126s-25.36 18-28.62 34.73a50.2 50.2 0 0 0-.89 11.29c.17 14.9 4.12 28.29 15.72 38.54 14.3 12.65 42 14.47 56.89-4.09 1.56-2 2.63-2.51 4.63-.39a107.56 107.56 0 0 0 8.6 7.92c1.52 1.27 1.72 2.16.29 3.86zM1094.56 231c-9.46 7.89-28.77 8.83-38.79 1.7-7.81-5.57-10.18-13.83-10.22-22.83-.13-26.06 0-52.12 0-78.18 0-5.1 0-5.1-5.28-5.1-4.28 0-8.56-.1-12.84 0-2.17.07-2.87-.7-2.79-2.82q.2-5.67 0-11.33c-.08-2.15.66-2.86 2.81-2.8 4.65.13 9.32-.16 14 .11 3.19.18 4.34-.54 4.23-4.06-.29-9.05 0-18.12-.15-27.19 0-2.4.55-3.35 3.11-3.24 4.4.2 8.82.19 13.21 0 2.6-.11 3.17 1 3.14 3.32-.1 9.19.07 18.38-.11 27.56 0 2.86.81 3.68 3.63 3.59 6.29-.2 12.59 0 18.88-.1 2.06 0 2.92.48 2.83 2.7-.16 3.9-.15 7.81 0 11.71.08 2-.7 2.56-2.61 2.53-6.55-.09-13.1 0-19.64-.06-1.88 0-3.05.2-3.05 2.58.1 25.3.09 50.61.18 75.91 0 5.64 1.3 11 6.88 13.7 6 2.91 11.76 1.15 17.08-2.34.51-.34 1-.72 1.75-1.26 1.73 4.36 3.33 8.58 5.08 12.73.58 1.68-.33 2.36-1.33 3.17z"/><path d="M190.64 135.5a34.11 34.11 0 0 0-33.85 35.07c.29 18.19 16 33.28 34.41 33 18.87-.27 34.39-16 33.91-34.32-.49-19.07-15.74-34-34.47-33.75z"/><path d="M372.85 146.25c-6.09-7.7-13.67-13.71-21.91-18.91-14.25-9-29.71-15.29-45.84-20-2.84-.83-3.32-1.87-2.63-4.7A184.34 184.34 0 0 0 307.89 61c-.06-13.47-1.43-25.78-6.09-37.55C295.91 8.62 284.27.15 269 0c-9.87-.1-19.1 2.81-28 6.76-17.84 7.9-33.05 19.63-47.09 32.94-2.41 2.29-3.61 1.83-5.65-.13a178.05 178.05 0 0 0-20-16.62C153.1 12.19 137.2 3.06 118.42.71c-14.85-1.86-27.14 2.78-35.24 16S73.85 44.93 73.82 60c0 14.65 2.47 29 5.87 43.26.53 2.22 0 3-2.08 3.65a202.61 202.61 0 0 0-22.08 7.61c-16.5 6.89-32 15.31-44.23 28.78-14.57 16.06-15.06 34.2-1.43 51.13a83.29 83.29 0 0 0 15.68 14.67c15.58 11.51 33.12 18.9 51.53 24.47 2.28.69 3.06 1.52 2.45 3.9a197.91 197.91 0 0 0-4.83 26.7c-1.8 16.14-1.61 32.18 3.43 47.8 4.74 14.73 13.78 25.07 29.92 27.32 10 1.39 19.52-1 28.79-4.45 20-7.45 36.82-20 52.3-34.4 2-1.87 3.12-2 5.08 0A165 165 0 0 0 213.81 317c14.53 10.64 29.91 19.63 48.12 22.22 15.26 2.17 27.85-2.43 36.4-15.87 7-10.95 9-23.35 9.95-36 1.21-17-1-33.65-5-50.11-.65-2.68-.45-3.95 2.55-4.75a155.39 155.39 0 0 0 25.4-9.46c15.28-7.09 29.58-15.64 40.67-28.72 13-15.31 13.38-32.37.95-48.06zM204 52.39c14.6-13.45 30-25.74 48.82-32.83A51.65 51.65 0 0 1 266 16.37c8.09-.78 14.51 1.95 18.68 9.28 4.42 7.75 5.67 16.31 6.48 25 .32 3.37 0 6.79 0 10.18.24 12.89-1.79 25.53-4.52 38.09-.47 2.15-1 3.29-3.65 2.65-15-3.68-30.37-5.71-45.74-7.33a4.87 4.87 0 0 1-3.92-2.32 339.75 339.75 0 0 0-29.07-36.14c-.94-1.1-1.83-1.93-.26-3.39zm-68.49 176.1a332.51 332.51 0 0 1-32.88-5.16c-2-.41-2.06-1.18-1.54-2.82 3.27-10.28 7.09-20.36 11.52-31.26 7.39 13.54 14.65 26.27 22.92 39.24zm-34.32-108.58c-.47-1.5-.46-2.18 1.37-2.58 10.44-2.26 21-4 32.4-5.42-8 13-15.29 25.55-22.31 38.86a323.4 323.4 0 0 1-11.46-30.86zM123.28 174c-1.35-2.69-1.62-4.85-.19-7.71a522.51 522.51 0 0 1 31.3-54.19 5.29 5.29 0 0 1 4.59-2.61c10.8-.68 21.61-1.14 32.43-1.18s21.37.47 32 1.16a4.59 4.59 0 0 1 3.9 2.4 584.46 584.46 0 0 1 32 55.08 5.6 5.6 0 0 1-.07 5.65 588.3 588.3 0 0 1-31.59 54.92 5.57 5.57 0 0 1-4.84 2.83c-21 1.37-42 1.06-63 .22a6 6 0 0 1-5.32-2.8A544.71 544.71 0 0 1 123.28 174zm146.21 14.64a326.54 326.54 0 0 1 12.2 31.42c.41 1.22.65 2.1-1.07 2.45-10.91 2.27-21.83 4.46-33.72 5.51 7.97-13.18 15.46-25.86 22.59-39.34zm-.11-38c-7.31-13.26-14.36-25.78-22.23-38.25 3.36-.85 6.26.14 9.09.61 7.54 1.24 15 2.91 22.56 4.23 2 .36 2.79.72 2 3-3.23 10.09-6.8 19.97-11.42 30.43zM189.61 67c.64-.73 1.24-2.07 2.57-.57a333.28 333.28 0 0 1 21.45 26.17c-15.37-.72-29.89-.7-44.93 0 2.72-4.83 6.16-8.45 9.28-12.28 3.72-4.53 7.71-8.88 11.63-13.32zM93 35.17c4.6-16.48 13.42-21.48 30-17s30.43 13.61 43.52 24.18c3.82 3.08 7.39 6.46 11.14 9.62 1.58 1.32 1.76 2.26.21 3.89a330.28 330.28 0 0 0-29 35.72 5.88 5.88 0 0 1-4.51 2.85 368.48 368.48 0 0 0-45.42 7.1c-1.9.44-3 .07-3.44-2.13-3-13.53-5.32-27.13-5.32-41A85.12 85.12 0 0 1 93 35.17zm-7.41 180.57c-.73 2.35-1.58 3-4.17 2.22-18.34-5.83-35.91-13.17-50.82-25.71-6.4-5.38-12.25-11.29-14-20-.17-.86-.29-1.73-.37-2.22.24-6.09 2.85-10.75 6.45-14.93 8.75-10.13 20-16.77 31.9-22.4a208 208 0 0 1 27.5-10.2c2.18-.68 2.86-.11 3.43 1.79a332.86 332.86 0 0 0 16.81 43.58 5 5 0 0 1-.09 4.62 357.6 357.6 0 0 0-16.64 43.25zM179 287.55c-16.92 15.71-34.91 29.71-58.09 34.89-14.64 3.27-23.51-2.22-27.65-16.61a85.46 85.46 0 0 1-3.15-24.59c0-13.52 2.21-26.75 5.18-39.9.59-2.6 1.85-2.55 3.7-2.14q14 3.09 28.22 4.76c5.86.69 11.73 1.35 17.61 1.85a4.84 4.84 0 0 1 4.06 2.1 378.37 378.37 0 0 0 29.85 37c.8.83 1.55 1.45.27 2.64zm14.4-14.66c-1.29 1.5-2 1.62-3.4.08-7.27-8-14.16-16.28-21.11-25.47h44.44c-.85 2.55-2.71 4.24-4.16 6.19-4.96 6.65-10.37 12.92-15.78 19.2zm94.93 33.6c-.2.59-.41 1.19-.63 1.77-4.76 12.73-13.07 17.32-26.36 14.4-14.43-3.18-26.75-10.63-38.46-19.25-6.3-4.64-12-9.92-17.86-15.09-1.55-1.37-1.74-2.32-.25-3.91 10.67-11.42 20-23.9 29-36.67a4.12 4.12 0 0 1 3.29-2c15.76-1.58 31.45-3.63 46.88-7.27 2.38-.56 3.07.42 3.54 2.46 2.8 12.28 4.75 24.66 4.66 37.3.04 9.6-.79 19.08-3.82 28.26zm70-121.35c-10.76 11.78-24.43 19.17-38.9 25.23-5.89 2.47-12 4.37-18 6.61-2.22.83-3.38.75-4.26-2A339.23 339.23 0 0 0 279.92 172a4.87 4.87 0 0 1-.06-4.6 337.74 337.74 0 0 0 16.77-43.12c.42-1.39.81-2.34 2.81-1.72 19.67 6.11 38.65 13.55 54.46 27.33a42.33 42.33 0 0 1 9.18 10.9 16.46 16.46 0 0 1 2.41 8.61c0 6.35-3.14 11.3-7.19 15.74zM606.17 230.87q-20.91-31.63-41.9-63.24c-2.28-3.45-2.25-3.39 1.85-4.08 11.85-2 22.23-7 29.56-16.63 13.5-17.69 14.56-37.35 5.62-57-8.57-18.84-25.17-27-45.14-27.54-22.9-.65-45.83-.15-68.74-.33-3.25 0-4.23.69-4.21 4.11.15 27.32.08 54.65.08 82 0 27.58 0 55.16-.05 82.74 0 2.71.53 3.82 3.5 3.66a134.5 134.5 0 0 1 14.34 0c3.12.17 4-.74 4-3.93-.15-20.4 0-40.8-.14-61.2 0-2.86.78-3.62 3.59-3.56q13.59.27 27.2 0a5.56 5.56 0 0 1 5.43 3c13.31 20.9 26.77 41.71 40.08 62.61 1.36 2.14 2.7 3.17 5.35 3.07 5.91-.22 11.84 0 17.75-.09 1.09 0 2.61.57 3.18-.37.78-1.26-.7-2.24-1.35-3.22zm-75.51-84v.1c-7.55 0-15.11-.07-22.67.05-2.24 0-3-.51-3-2.92q.14-30 0-60.08c0-2.32.64-3 3-3 14.86.15 29.74-.28 44.58.3 13.41.53 24.25 6.41 29.34 19.44s3.43 25.57-6.3 36.2c-5.88 6.42-13.65 9.4-22.22 9.8-7.6.41-15.17.14-22.73.14zM743.89 153.26c-11.52-48.2-60.46-56.49-90.26-37.27s-36.35 60.14-20.93 89.35c10.19 19.3 26.81 29.48 48.34 31.63 19.3 1.93 37-2.33 52.4-14.55 4.77-3.77 4.74-3.81 1.25-8.55-1.5-2-3-4-4.46-6.1-1-1.46-1.71-2-3.41-.48-10.2 9.28-22.31 13.75-36.07 14-25.12.52-42.24-17-45.18-39.38-.38-2.91.47-3.67 3.34-3.65 15.61.12 31.23.06 46.85.06s31.23-.06 46.85 0c2.65 0 3.71-.44 3.69-3.45a95.79 95.79 0 0 0-2.41-21.61zM724 164.18H648.55c-2 0-3.18-.15-3-2.81.73-15.34 12.2-31.22 26.54-36.44 15.51-5.65 33.58-1.45 44.25 10.54 6.56 7.37 9.81 16.18 10.67 26 .17 2.86-1.14 2.72-3.01 2.71zM874.55 144.59c-.29-15.52-8-26.94-22.54-33.32-10.78-4.75-22.16-5.35-33.64-4.34a62.49 62.49 0 0 0-39.6 18.28c-1.08 1.07-2.25 1.94-.93 3.76 2.71 3.77 5.24 7.66 8.37 12.3a27.61 27.61 0 0 1 2.49-3.41c12.42-12.14 27.28-16.54 44.3-13.62 11.46 2 20.17 9.64 21.89 19.65 1.55 9 .63 18.19.79 27.28-.54 0-.69.05-.77 0a5.32 5.32 0 0 1-.89-.67c-13.83-13.8-30.84-17.51-49.37-14.36-15.55 2.64-27.31 11.08-32.07 26.81s-2.28 30.11 9.62 41.84c12.1 11.92 27.13 14.49 43.38 11.65 11.5-2 21.31-7.27 30.1-16.34 0 4.38.11 7.76 0 11.13-.11 2.32.39 3.44 3.06 3.31 4.4-.22 8.82-.18 13.22 0 2.4.1 2.94-.81 2.93-3-.14-29.03.2-58-.34-86.95zm-28.28 72c-11.73 7.05-24.3 8.92-37.32 4.92-12.83-3.93-19.52-15-18.24-28.63 1.08-11.59 10.84-21.4 23.4-23.19 12.13-1.73 23.51.34 33.77 7.39 5.23 3.6 9.14 7.84 7.84 14.92a25.23 25.23 0 0 0 0 4.52 13.68 13.68 0 0 0 0 2.64c1.62 8.38-2.88 13.44-9.45 17.4zM1012.84 217.86c-13.11 15.64-30.24 21-49.92 19.34-35.42-3-56.49-31.54-56.44-64.88 0-22.08 7.51-40.9 25.7-54.44 21.61-16.09 60.15-16.34 79.49 6.85 2.17 2.6 2.83 4.15-.3 6.42a87.64 87.64 0 0 0-8.09 7.36c-1.15 1.09-1.87 1.51-3.19-.13C988.42 124 973.08 121 956.22 126s-25.36 18-28.62 34.73a50.2 50.2 0 0 0-.89 11.29c.17 14.9 4.12 28.29 15.72 38.54 14.3 12.65 42 14.47 56.89-4.09 1.56-2 2.63-2.51 4.63-.39a107.56 107.56 0 0 0 8.6 7.92c1.52 1.27 1.72 2.16.29 3.86zM1094.56 231c-9.46 7.89-28.77 8.83-38.79 1.7-7.81-5.57-10.18-13.83-10.22-22.83-.13-26.06 0-52.12 0-78.18 0-5.1 0-5.1-5.28-5.1-4.28 0-8.56-.1-12.84 0-2.17.07-2.87-.7-2.79-2.82q.2-5.67 0-11.33c-.08-2.15.66-2.86 2.81-2.8 4.65.13 9.32-.16 14 .11 3.19.18 4.34-.54 4.23-4.06-.29-9.05 0-18.12-.15-27.19 0-2.4.55-3.35 3.11-3.24 4.4.2 8.82.19 13.21 0 2.6-.11 3.17 1 3.14 3.32-.1 9.19.07 18.38-.11 27.56 0 2.86.81 3.68 3.63 3.59 6.29-.2 12.59 0 18.88-.1 2.06 0 2.92.48 2.83 2.7-.16 3.9-.15 7.81 0 11.71.08 2-.7 2.56-2.61 2.53-6.55-.09-13.1 0-19.64-.06-1.88 0-3.05.2-3.05 2.58.1 25.3.09 50.61.18 75.91 0 5.64 1.3 11 6.88 13.7 6 2.91 11.76 1.15 17.08-2.34.51-.34 1-.72 1.75-1.26 1.73 4.36 3.33 8.58 5.08 12.73.58 1.68-.33 2.36-1.33 3.17z"/><path d="M225.11 169.26c.48 18.34-15 34.05-33.91 34.32-18.4.27-34.12-14.82-34.41-33a34.11 34.11 0 0 1 33.85-35.07c18.73-.26 33.98 14.67 34.47 33.75z"/><path d="M225.11 169.26c.48 18.34-15 34.05-33.91 34.32-18.4.27-34.12-14.82-34.41-33a34.11 34.11 0 0 1 33.85-35.07c18.73-.26 33.98 14.67 34.47 33.75z"/></g></svg>