<svg xmlns="http://www.w3.org/2000/svg" xmlns:xlink="http://www.w3.org/1999/xlink" viewBox="0 0 505.63 446.69"><defs><style>.rocket-cls-1,.rocket-cls-10,.rocket-cls-11,.rocket-cls-12,.rocket-cls-15,.rocket-cls-27,.rocket-cls-36,.rocket-cls-39,.rocket-cls-44,.rocket-cls-45,.rocket-cls-46{fill:none;}.rocket-cls-2{clip-path:url(#clip-path);}.rocket-cls-3{fill:url(#linear-gradient);}.rocket-cls-4{fill:url(#linear-gradient-2);}.rocket-cls-13,.rocket-cls-5,.rocket-cls-6{fill:#fff;}.rocket-cls-5{opacity:0.04;}.rocket-cls-20,.rocket-cls-23,.rocket-cls-24,.rocket-cls-34,.rocket-cls-42,.rocket-cls-49,.rocket-cls-5,.rocket-cls-6{isolation:isolate;}.rocket-cls-20,.rocket-cls-6{opacity:0.21;}.rocket-cls-7{fill:#41a0d7;}.rocket-cls-8{fill:#2888bf;}.rocket-cls-9{fill:#05cdff;}.rocket-cls-10,.rocket-cls-11,.rocket-cls-15,.rocket-cls-39,.rocket-cls-44,.rocket-cls-46{stroke:#fff;}.rocket-cls-10,.rocket-cls-11,.rocket-cls-12,.rocket-cls-15,.rocket-cls-27,.rocket-cls-36,.rocket-cls-39,.rocket-cls-44,.rocket-cls-45{stroke-miterlimit:10;}.rocket-cls-10{stroke-width:0.86px;}.rocket-cls-11,.rocket-cls-15,.rocket-cls-27,.rocket-cls-36,.rocket-cls-39{stroke-linecap:round;}.rocket-cls-11,.rocket-cls-12{stroke-width:2.29px;}.rocket-cls-12{stroke:#b4d7dc;}.rocket-cls-14{fill:#b4d7dc;}.rocket-cls-15{stroke-width:4.58px;}.rocket-cls-16{fill:#8fe9ff;}.rocket-cls-17{fill:#d4f6ff;}.rocket-cls-18{fill:#ffc305;}.rocket-cls-19{fill:#dc47be;}.rocket-cls-21{fill:#a5c8cd;}.rocket-cls-22{fill:#ff527f;}.rocket-cls-23{opacity:0.19;}.rocket-cls-24{opacity:0.39;}.rocket-cls-25{fill:#6ee1ff;}.rocket-cls-26{fill:#d2fcff;}.rocket-cls-27{stroke:#be1ec8;stroke-width:6.26px;}.rocket-cls-28{fill:#be1ec8;}.rocket-cls-29{fill:url(#linear-gradient-3);}.rocket-cls-30{fill:url(#linear-gradient-4);}.rocket-cls-31{fill:url(#linear-gradient-5);}.rocket-cls-32{fill:url(#linear-gradient-6);}.rocket-cls-33{fill:#ffd23c;}.rocket-cls-34{opacity:0.22;fill:url(#linear-gradient-7);}.rocket-cls-35{fill:url(#linear-gradient-8);}.rocket-cls-36,.rocket-cls-45{stroke:#a5c8cd;}.rocket-cls-36{stroke-width:4.3px;}.rocket-cls-37{fill:#8238f0;}.rocket-cls-38{fill:#ff82aa;}.rocket-cls-39{stroke-width:9.45px;}.rocket-cls-40{fill:#e1325a;}.rocket-cls-41{fill:#eb5a7d;}.rocket-cls-42{opacity:0.15;}.rocket-cls-43{fill:#6c9baa;}.rocket-cls-44,.rocket-cls-45{stroke-width:3.03px;}.rocket-cls-46{stroke-linejoin:round;stroke-width:4.47px;}.rocket-cls-47{fill:#46738c;}.rocket-cls-48{fill:#87afb9;}.rocket-cls-49{opacity:0.3;fill:url(#linear-gradient-9);}</style><clipPath id="clip-path"><path class="rocket-cls-1" d="M31.26,177.43c16.66-48.24,37.39-36.77,50-77.67,16-51.82,47.15-58.95,79.23-53.66s45.77,12.21,95.77-6.58,73.46-14.87,101.64,10c30.79,27.17,17,49.81,55,84.7S453.36,204.1,446,228.15c-10.48,33.92-28.69,49.34-22.69,86.21s-3.47,87.07-71,92.65-64.93-20.54-130.93-16.16c-21.94,1.46-90.22,34.94-122.37,17.68C68.26,392,46,378.32,58.26,314.68,64.85,280,12.49,231.88,31.26,177.43Z"/></clipPath><linearGradient id="linear-gradient" x1="90.82" y1="-22.8" x2="387.42" y2="490.92" gradientTransform="matrix(1, 0, 0, -1, 0, 451.18)" gradientUnits="userSpaceOnUse"><stop offset="0" stop-color="#1b1464"/><stop offset="1" stop-color="#93278f"/></linearGradient><linearGradient id="linear-gradient-2" x1="135.45" y1="-73.72" x2="290.82" y2="195.38" xlink:href="#linear-gradient"/><linearGradient id="linear-gradient-3" x1="363.68" y1="252.05" x2="406.2" y2="297.34" gradientTransform="matrix(0.71, 0.71, 0.71, -0.71, -80.89, 99.86)" gradientUnits="userSpaceOnUse"><stop offset="0" stop-color="#c3417d"/><stop offset="1" stop-color="#eb5a7d" stop-opacity="0"/></linearGradient><linearGradient id="linear-gradient-4" x1="322.72" y1="233.38" x2="364.68" y2="233.38" gradientTransform="matrix(1, 0, 0, -1, 0, 451.18)" gradientUnits="userSpaceOnUse"><stop offset="0" stop-color="#c3417d"/><stop offset="1" stop-color="#eb5a7d"/></linearGradient><linearGradient id="linear-gradient-5" x1="346.57" y1="236.74" x2="423.56" y2="312.88" gradientTransform="matrix(0.71, 0.71, 0.71, -0.71, -83.98, 92.42)" gradientUnits="userSpaceOnUse"><stop offset="0" stop-color="#ff7bac"/><stop offset="1" stop-color="#ff7bac" stop-opacity="0"/></linearGradient><linearGradient id="linear-gradient-6" x1="326.18" y1="233.75" x2="361.96" y2="233.75" gradientTransform="matrix(1, 0, 0, -1, 0, 451.18)" gradientUnits="userSpaceOnUse"><stop offset="0" stop-color="#ff7bac"/><stop offset="1" stop-color="#ff7bac"/></linearGradient><linearGradient id="linear-gradient-7" x1="291.83" y1="180.72" x2="412.48" y2="180.72" gradientTransform="matrix(1, 0, 0, -1, 0, 451.18)" gradientUnits="userSpaceOnUse"><stop offset="0" stop-color="#d2f0ff"/><stop offset="1" stop-color="#ff7bac" stop-opacity="0"/></linearGradient><linearGradient id="linear-gradient-8" x1="28.69" y1="331.75" x2="171.78" y2="388.38" gradientTransform="matrix(1, 0, 0, -1, 0, 451.18)" gradientUnits="userSpaceOnUse"><stop offset="0" stop-color="#ff9fc3"/><stop offset="1" stop-color="#ff7bac" stop-opacity="0"/></linearGradient><linearGradient id="linear-gradient-9" x1="177.64" y1="108.32" x2="280.31" y2="108.32" gradientTransform="matrix(1, 0, 0, -1, 0, 451.18)" gradientUnits="userSpaceOnUse"><stop offset="0" stop-color="#fff"/><stop offset="1" stop-color="#ff7bac" stop-opacity="0"/></linearGradient></defs><g><g><g><g class="rocket-cls-2"><rect class="rocket-cls-3" x="22" width="434.24" height="434.24"/><path class="rocket-cls-4" d="M.26,196.11S75.53,142.71,130,183.24s41.24,102.49,128.91,104.22,103.3.58,149,42.85,97.77,52.11,97.77,52.11v64.27H0Z"/></g><circle class="rocket-cls-5" cx="234.14" cy="212.41" r="161.97"/><circle class="rocket-cls-5" cx="234.14" cy="212.41" r="127.57"/><circle class="rocket-cls-5" cx="234.14" cy="212.41" r="93.96"/><circle class="rocket-cls-5" cx="234.15" cy="212.43" r="61.46"/><circle class="rocket-cls-6" cx="234.14" cy="212.41" r="34.21"/><rect class="rocket-cls-7" x="350.08" y="322.38" width="17.65" height="8.59" transform="translate(-118.01 236.75) rotate(-31.63)"/><rect class="rocket-cls-8" x="362.68" y="318.26" width="6.28" height="8.55" transform="translate(-114.55 238.31) rotate(-31.46)"/><rect class="rocket-cls-9" x="304.33" y="332.11" width="52.96" height="23.75" rx="2.45" transform="translate(-131.26 224.58) rotate(-31.63)"/><line class="rocket-cls-10" x1="351.1" y1="326.46" x2="306" y2="354.24"/><line class="rocket-cls-10" x1="355.6" y1="333.77" x2="310.5" y2="361.55"/><line class="rocket-cls-10" x1="339.96" y1="324.41" x2="352.42" y2="344.64"/><line class="rocket-cls-10" x1="332.16" y1="329.22" x2="344.62" y2="349.44"/><line class="rocket-cls-10" x1="324.37" y1="334.02" x2="336.82" y2="354.24"/><line class="rocket-cls-10" x1="316.57" y1="338.82" x2="329.03" y2="359.04"/><line class="rocket-cls-10" x1="308.77" y1="343.62" x2="321.23" y2="363.85"/><line class="rocket-cls-11" x1="389.8" y1="340.23" x2="400.71" y2="357.94"/><line class="rocket-cls-12" x1="389.8" y1="340.23" x2="396.51" y2="351.12"/><rect class="rocket-cls-7" x="382.96" y="302.17" width="17.65" height="8.59" transform="translate(-102.52 250.99) rotate(-31.63)"/><rect class="rocket-cls-8" x="383.81" y="305.13" width="6.3" height="8.59" transform="translate(-104.79 248.9) rotate(-31.63)"/><path class="rocket-cls-13" d="M405,338.71l-23.39,14.41L352,305.06a5.15,5.15,0,0,1,.31-5.91A29.8,29.8,0,0,1,370,288.28a5.15,5.15,0,0,1,5.42,2.37Z"/><path class="rocket-cls-14" d="M370,288.28a29.63,29.63,0,0,0-13.07,6.19,31.73,31.73,0,0,1,6.24-2,5.14,5.14,0,0,1,5.42,2.38l29.61,48.06L405,338.7l-29.6-48.06A5.15,5.15,0,0,0,370,288.28Z"/><line class="rocket-cls-15" x1="379.66" y1="354.32" x2="406.95" y2="337.51"/><rect class="rocket-cls-9" x="359.72" y="310.52" width="27.47" height="6.41" transform="translate(-109.05 242.46) rotate(-31.63)"/><rect class="rocket-cls-16" x="364.3" y="312.53" width="11.73" height="6.41" transform="translate(-110.6 241.03) rotate(-31.63)"/><rect class="rocket-cls-17" x="366.61" y="313.25" width="4.82" height="6.41" transform="translate(-111.14 240.53) rotate(-31.63)"/><rect class="rocket-cls-9" x="393.4" y="277.27" width="52.96" height="23.75" rx="2.45" transform="translate(-89.26 263.15) rotate(-31.63)"/><line class="rocket-cls-10" x1="395.08" y1="299.36" x2="440.18" y2="271.59"/><line class="rocket-cls-10" x1="399.59" y1="306.67" x2="444.68" y2="278.9"/><line class="rocket-cls-10" x1="398.27" y1="288.5" x2="410.72" y2="308.72"/><line class="rocket-cls-10" x1="406.06" y1="283.69" x2="418.52" y2="303.92"/><line class="rocket-cls-10" x1="413.86" y1="278.89" x2="426.32" y2="299.11"/><line class="rocket-cls-10" x1="421.66" y1="274.09" x2="434.11" y2="294.31"/><line class="rocket-cls-10" x1="429.45" y1="269.29" x2="441.91" y2="289.51"/><path class="rocket-cls-18" d="M403.12,357.26a2.41,2.41,0,1,1-3.32-.77h0A2.4,2.4,0,0,1,403.12,357.26Z"/><path class="rocket-cls-19" d="M209.53,237.36,195.41,249a28.1,28.1,0,0,0-10.15,21.55l-.19,47.61h0a9.85,9.85,0,0,0,9.88-9.8v-5.55a41.37,41.37,0,0,1,14.94-31.66l13-10.83Z"/><path class="rocket-cls-19" d="M259.93,237.59l14,11.79a28.17,28.17,0,0,1,10,21.63l-.14,47.58h0a9.83,9.83,0,0,1-9.8-9.86v-5.57a41.36,41.36,0,0,0-14.69-31.78l-12.94-10.92Z"/><path class="rocket-cls-20" d="M259.93,237.59l14,11.79a28.17,28.17,0,0,1,10,21.63l-.14,47.58h0a9.83,9.83,0,0,1-9.8-9.86v-5.57a41.36,41.36,0,0,0-14.69-31.78l-12.94-10.92Z"/><path class="rocket-cls-9" d="M252.74,293.94l-36.12-.14a4.18,4.18,0,0,1-4.18-4.2,4.53,4.53,0,0,1,0-.52l3.3-26.48,38.06.15,3.1,26.5a4.2,4.2,0,0,1-3.68,4.66Z"/><path class="rocket-cls-7" d="M252.74,293.94h-9.93l.13-31.19h10.89l3.1,26.5a4.2,4.2,0,0,1-3.68,4.66Z"/><path class="rocket-cls-13" d="M247.43,268.76a13.17,13.17,0,0,0,13-10.58,266.2,266.2,0,0,0,4.73-50.47c.2-52.86-23.13-108.12-29.71-108.12-7.8,0-30.36,55-30.57,107.87a267.26,267.26,0,0,0,4.33,50.5,13.19,13.19,0,0,0,12.91,10.69Z"/><path class="rocket-cls-21" d="M255.79,143.59c-7.21-25.65-16.53-44-20.34-44-4.5,0-13.88,18.23-21.07,43.8Z"/><path class="rocket-cls-22" d="M253.85,137c-6.86-22.15-14.94-37.4-18.4-37.42-4.1,0-12.27,15.18-19.14,37.27Z"/><path class="rocket-cls-13" d="M220.09,136.88h4c3.8-12.22,5.53-20.86,8.67-28.95a.57.57,0,0,0-.42-.7.59.59,0,0,0-.58.18C228.6,112.74,224.75,121.88,220.09,136.88Z"/><path class="rocket-cls-23" d="M235.45,99.59c-.57,0,19.44,48.15,18.39,108.06-.33,18.53-1.81,35.83-4.74,50.47a13.19,13.19,0,0,1-13,10.59h11.27A13.24,13.24,0,0,0,260.43,258a268.1,268.1,0,0,0,4.71-50.33C265.36,154.85,242,99.59,235.45,99.59Z"/><circle class="rocket-cls-24" cx="234.85" cy="198.8" r="21.51"/><circle class="rocket-cls-19" cx="234.85" cy="196.51" r="21.51" transform="translate(-53.9 94.55) rotate(-20.47)"/><path class="rocket-cls-20" d="M234.93,175h-.23l-.17,43h.23a21.51,21.51,0,0,0,.17-43Z"/><circle class="rocket-cls-13" cx="234.85" cy="196.51" r="14.71" transform="translate(-69.95 167.11) rotate(-34.41)"/><path class="rocket-cls-25" d="M217.55,292.89h36.72V299a4.6,4.6,0,0,1-4.59,4.59H222.17a4.6,4.6,0,0,1-4.59-4.59v-6.1Z"/><path class="rocket-cls-9" d="M245.09,293.93l7.93,0h0l0,6.1a4.59,4.59,0,0,1-4.61,4.58l-3.33,0h0l0-10.69Z"/><path class="rocket-cls-19" d="M234.81,318.13l-.23.27h0a14.24,14.24,0,0,1-3.6-9.08l-1.72-62.24a14.47,14.47,0,0,1,5.65-11.88h0a14.45,14.45,0,0,1,5.55,11.94l-2.33,62.37A14.29,14.29,0,0,1,234.81,318.13Z"/><path class="rocket-cls-20" d="M234.81,318.13l-.23.27h0l.32-83.2h0a14.45,14.45,0,0,1,5.55,11.94l-2.33,62.37A14.28,14.28,0,0,1,234.81,318.13Z"/><path class="rocket-cls-26" d="M243.05,184.32v.87a19,19,0,0,1-19,19h-.12a16.32,16.32,0,0,1-1.71-.09A14.71,14.71,0,1,0,243,184.35Z"/><circle class="rocket-cls-19" cx="147.88" cy="99.1" r="33.3" transform="translate(-26.76 133.6) rotate(-45)"/><line class="rocket-cls-27" x1="129.49" y1="81.36" x2="105.64" y2="81.36"/><path class="rocket-cls-28" d="M194.26,93.12H157.57a3.26,3.26,0,0,0-3.31,3,3.13,3.13,0,0,0,3,3.29h6.38a3.15,3.15,0,0,1,3.14,3.14h0a3.15,3.15,0,0,1-3.14,3.14h-22a3.25,3.25,0,0,0-3.3,3,3.14,3.14,0,0,0,3,3.3h43.57a3.25,3.25,0,0,0,3.3-3,3.14,3.14,0,0,0-3-3.3h-2.72a3.16,3.16,0,0,1-3.14-3.14h0a3.15,3.15,0,0,1,3.14-3.15h11.6a3.25,3.25,0,0,0,3.3-3,3.13,3.13,0,0,0-3-3.29Z"/><line class="rocket-cls-27" x1="110.12" y1="123.94" x2="154.53" y2="123.94"/><rect class="rocket-cls-29" x="327.17" y="156.89" width="112.94" height="41.96" transform="translate(-13.41 323.37) rotate(-45)"/><circle class="rocket-cls-30" cx="343.7" cy="217.8" r="20.98"/><rect class="rocket-cls-31" x="324.59" y="152.55" width="132.96" height="35.77" transform="translate(-5.97 326.45) rotate(-45)"/><circle class="rocket-cls-32" cx="344.07" cy="217.43" r="17.89"/><path class="rocket-cls-18" d="M383,199.72a4,4,0,0,0,.09-5.66c-.12-.12-.25-.23-.38-.34a4.13,4.13,0,0,0-5.52.39l-17.37,17.36a1.16,1.16,0,0,1-1.63,0,1.5,1.5,0,0,1-.23-.33h0a1.18,1.18,0,0,1,.22-1.32l26.74-26.74a4.13,4.13,0,0,0,.38-5.51,4,4,0,0,0-6-.29l-26.42,26.42a1.58,1.58,0,0,1-1.84.3h0a1.59,1.59,0,0,1-.43-2.57l13.14-13.14a4.14,4.14,0,0,0,.38-5.52,4,4,0,0,0-5.63-.58l-.32.29-22.88,22.91a3.31,3.31,0,0,0-.41.5c-.33.28-.66.56-1,.87a14.86,14.86,0,0,0,21,21,9.45,9.45,0,0,0,.87-1,3.31,3.31,0,0,0,.5-.41Z"/><circle class="rocket-cls-33" cx="344.07" cy="217.43" r="9.78"/><path class="rocket-cls-34" d="M403.49,252.41H313.35a9.15,9.15,0,0,0-9.23,8.34,8.94,8.94,0,0,0,8.32,9.52l.6,0h0A3.66,3.66,0,0,1,316.7,274h0v.18a3.64,3.64,0,0,1-3.65,3.65H297.42a5.52,5.52,0,0,0-5.59,5.2,5.38,5.38,0,0,0,5.22,5.54h52a5.52,5.52,0,0,0,5.59-5.2,5.38,5.38,0,0,0-5.22-5.54h-5.15a3.64,3.64,0,0,1-3.66-3.64h0V274a3.66,3.66,0,0,1,3.66-3.66h59a9.13,9.13,0,0,0,9.23-8.34,8.94,8.94,0,0,0-8.32-9.52Z"/><path class="rocket-cls-35" d="M181.71,67.82H91.57a9.13,9.13,0,0,0-9.23,8.34,8.94,8.94,0,0,0,8.32,9.52l.6,0h0a3.66,3.66,0,0,1,3.66,3.66h0v.17a3.66,3.66,0,0,1-3.66,3.66H75.64a5.52,5.52,0,0,0-5.59,5.2,5.37,5.37,0,0,0,5.19,5.53h52a5.51,5.51,0,0,0,5.59-5.2,5.37,5.37,0,0,0-5.19-5.53h-5.22a3.64,3.64,0,0,1-3.65-3.65h0v-.17a3.64,3.64,0,0,1,3.64-3.66h59a9.15,9.15,0,0,0,9.23-8.35,8.93,8.93,0,0,0-8.33-9.51Z"/><line class="rocket-cls-36" x1="127.05" y1="363.19" x2="143.26" y2="400.62"/><circle class="rocket-cls-37" cx="112.61" cy="330.08" r="39.76" transform="translate(-200.42 176.31) rotate(-45)"/><path class="rocket-cls-23" d="M122,291.45A39.76,39.76,0,0,1,90.26,363,39.76,39.76,0,1,0,122,291.45Z"/><rect class="rocket-cls-13" x="71.23" y="323.52" width="82.8" height="13.16" rx="2.17" transform="translate(-121.92 71.96) rotate(-23.42)"/><path class="rocket-cls-38" d="M117.26,328.1a5,5,0,1,1-6.6-2.61,5,5,0,0,1,6.6,2.61Z"/><path class="rocket-cls-19" d="M115.14,329a2.75,2.75,0,1,1-3.62-1.43A2.76,2.76,0,0,1,115.14,329Z"/><path class="rocket-cls-38" d="M102.26,334.59A5,5,0,1,1,95.65,332a5,5,0,0,1,6.61,2.62Z"/><path class="rocket-cls-19" d="M100.16,335.49a2.75,2.75,0,1,1-3.62-1.43,2.76,2.76,0,0,1,3.62,1.43Z"/><path class="rocket-cls-38" d="M87.26,341.07a4.86,4.86,0,1,1,0-.05Z"/><path class="rocket-cls-19" d="M85.18,342a2.75,2.75,0,1,1-3.63-1.38h0A2.75,2.75,0,0,1,85.18,342Z"/><path class="rocket-cls-38" d="M147.18,315.12a5,5,0,1,1-6.6-2.61,5,5,0,0,1,6.6,2.61Z"/><path class="rocket-cls-19" d="M145.1,316a2.75,2.75,0,1,1-3.62-1.44A2.75,2.75,0,0,1,145.1,316Z"/><path class="rocket-cls-38" d="M132.2,321.59a5,5,0,1,1-6.6-2.61,5,5,0,0,1,6.6,2.61Z"/><path class="rocket-cls-19" d="M130.12,322.51a2.75,2.75,0,1,1-3.62-1.43A2.76,2.76,0,0,1,130.12,322.51Z"/><line class="rocket-cls-39" x1="120.05" y1="347.03" x2="131.66" y2="373.83"/><line class="rocket-cls-36" x1="139.8" y1="402.37" x2="146.9" y2="399.3"/><line class="rocket-cls-36" x1="98.49" y1="374.18" x2="102.92" y2="414.73"/><line class="rocket-cls-39" x1="96.58" y1="356.67" x2="99.75" y2="385.71"/><line class="rocket-cls-36" x1="100.13" y1="417.74" x2="106.91" y2="414.81"/><line class="rocket-cls-36" x1="157.35" y1="348.69" x2="183.9" y2="379.66"/><line class="rocket-cls-39" x1="145.88" y1="335.32" x2="164.9" y2="357.49"/><line class="rocket-cls-36" x1="188.01" y1="379.68" x2="181.23" y2="382.62"/><path class="rocket-cls-13" d="M95,299l-7.26-22.26a1.69,1.69,0,0,1,3.09-1.33l11.26,20.51a3.88,3.88,0,1,1-6.8,3.74h0A3.23,3.23,0,0,1,95,299Z"/><path class="rocket-cls-25" d="M361.79,32.12c1.77,6,.1,11.87-3.74,13s-8.39-2.86-10.16-8.91-.1-11.87,3.73-13S360,26.07,361.79,32.12Z"/><path class="rocket-cls-40" d="M324.66,53.33,261,69.59a2.48,2.48,0,0,1-3-1.71L255,58a2.5,2.5,0,0,1,1.61-3.08L319,34.13Z"/><path class="rocket-cls-41" d="M280.34,44.1l62.58-18.37h0l6.35,21.66h0L286.69,65.76a2.88,2.88,0,0,1-3.61-1.91v0L278.34,47.7a2.88,2.88,0,0,1,2-3.58Z"/><rect class="rocket-cls-13" x="308.91" y="32.88" width="22.57" height="22.57" transform="translate(0.52 91.98) rotate(-16.36)"/><path class="rocket-cls-42" d="M281.28,57.72l65.35-19.18h0l2.6,8.87h0L286.65,65.78a2.88,2.88,0,0,1-3.58-2h0l-1.79-6.1Z"/><rect class="rocket-cls-40" x="340.57" y="22.6" width="14.6" height="27.01" rx="2.18" transform="translate(3.9 99.39) rotate(-16.35)"/><rect class="rocket-cls-43" x="318.84" y="121.62" width="5.3" height="20.61" transform="translate(60.53 361.41) rotate(-63.64)"/><polygon class="rocket-cls-21" points="306.68 138.56 332.64 111.12 326.54 148.4 332.21 151.21 340.2 102.37 335.02 99.8 301.01 135.75 306.68 138.56"/><polygon class="rocket-cls-43" points="332.64 111.12 331.28 119.44 336.56 124.66 340.2 102.37 335.02 99.8 324.59 110.83 328.64 115.35 332.64 111.12"/><line class="rocket-cls-44" x1="361.73" y1="104.74" x2="383.75" y2="107.38"/><line class="rocket-cls-45" x1="361.73" y1="104.74" x2="370.98" y2="105.85"/><path class="rocket-cls-40" d="M386.74,107.73a3,3,0,1,1-2.63-3.34,3,3,0,0,1,2.63,3.34Z"/><path class="rocket-cls-40" d="M336.44,108.09l-6.27-.75a6.33,6.33,0,0,1-5.52-7h0a6.31,6.31,0,0,1,7-5.53l6.27.75Z"/><path class="rocket-cls-13" d="M335.54,101.59A32.6,32.6,0,0,0,364,137.83h0l7.74-64.75A32.61,32.61,0,0,0,335.54,101.59Z"/><path class="rocket-cls-14" d="M336.71,96a32.6,32.6,0,0,0,21.75,40.65,33.14,33.14,0,0,0,5.58,1.17l1.35-11.27A32.62,32.62,0,0,1,336.71,96Z"/><polyline class="rocket-cls-46" points="106.74 223.37 135.47 186.36 158.13 206.54"/><rect class="rocket-cls-14" x="76.42" y="195.53" width="15.45" height="19.48" transform="translate(-137.09 221.59) rotate(-71.93)"/><path class="rocket-cls-13" d="M112,244.94,48.12,223.81a11.48,11.48,0,0,1-7.29-14.49h0A11.48,11.48,0,0,1,55.32,202l63.94,21.13a11.47,11.47,0,0,1,7.29,14.49h0a11.48,11.48,0,0,1-14.5,7.3Z"/><path class="rocket-cls-21" d="M94.58,227.09a11.49,11.49,0,1,1-7.33-14.5h0A11.49,11.49,0,0,1,94.58,227.09Z"/><path class="rocket-cls-43" d="M89.85,225.53a6.5,6.5,0,1,1-4.13-8.22,6.5,6.5,0,0,1,4.13,8.22Z"/><path class="rocket-cls-47" d="M85.72,217.31l-4.09,12.35a6.5,6.5,0,0,0,4.09-12.35Z"/><circle class="rocket-cls-21" cx="57.35" cy="214.8" r="11.48"/><path class="rocket-cls-43" d="M63.53,216.83a6.5,6.5,0,1,1-4.13-8.24,6.51,6.51,0,0,1,4.13,8.24Z"/><path class="rocket-cls-47" d="M59.4,208.59l-4.09,12.35a6.5,6.5,0,0,0,4.09-12.35Z"/><path class="rocket-cls-21" d="M120.9,235.79a11.48,11.48,0,1,1-7.3-14.51,11.48,11.48,0,0,1,7.3,14.51Z"/><path class="rocket-cls-43" d="M116.18,234.23A6.51,6.51,0,1,1,112,226h0A6.51,6.51,0,0,1,116.18,234.23Z"/><path class="rocket-cls-47" d="M112,226,108,238.36A6.5,6.5,0,1,0,112,226Z"/><rect class="rocket-cls-13" x="69.55" y="161.39" width="39.48" height="51.55" rx="3.51" transform="translate(-116.44 213.21) rotate(-71.71)"/><rect class="rocket-cls-14" x="87.24" y="162.34" width="10.13" height="35.92" rx="2.23" transform="translate(-107.74 212.12) rotate(-71.93)"/><path class="rocket-cls-48" d="M108,180.73l-29.9-9.89a2.24,2.24,0,0,0-2.83,1.42l-.84,2.55a2.23,2.23,0,0,1,2.81-1.43h0l29.9,9.88a2.24,2.24,0,0,1,1.42,2.82l.84-2.54a2.23,2.23,0,0,0-1.42-2.82Z"/><path class="rocket-cls-13" d="M155.66,219l-2.73-8.49a2,2,0,0,1,.42-2l6-6.61a2,2,0,0,1,1.93-.62l8.71,1.88a2,2,0,0,1,1.5,1.36l2.69,8.37h0a4.45,4.45,0,0,1-5.61-2.87v0l-.54-1.66a2,2,0,0,0-1.5-1.35l-3.66-.79a2,2,0,0,0-1.93.61l-2.53,2.83a2,2,0,0,0-.43,2l1.15,3.58a2,2,0,0,0,1.5,1.35l1.7.37a4.47,4.47,0,0,1,3.43,5.31h0l-8.6-1.86A2,2,0,0,1,155.66,219Z"/><path class="rocket-cls-21" d="M139.26,188.59a4,4,0,1,1-2.56-5.08,4,4,0,0,1,2.56,5.08Z"/><path class="rocket-cls-14" d="M107.88,214.1l7.05,2.33a2.47,2.47,0,0,1,1.57,3.12h0l-.8,2.42h0L104,218.09h0l.81-2.44A2.48,2.48,0,0,1,107.88,214.1Z"/><path class="rocket-cls-49" d="M274,328H184.16a6.43,6.43,0,0,0-6.52,6.07,6.27,6.27,0,0,0,6.07,6.45h42.36a4.2,4.2,0,0,1,4.19,4.19h0a4.2,4.2,0,0,1-4.18,4.2h-8.22a4.6,4.6,0,0,0-4.64,4,4.47,4.47,0,0,0,4,4.89l.46,0h38.2a4.6,4.6,0,0,0,4.64-4,4.47,4.47,0,0,0-4-4.89l-.44,0h-4.27a4.2,4.2,0,0,1-4.2-4.2h0a4.2,4.2,0,0,1,4.2-4.19h22a6.43,6.43,0,0,0,6.52-6.07,6.26,6.26,0,0,0-6.05-6.45Z"/><path class="rocket-cls-13" d="M111.36,152.81a1.34,1.34,0,1,0-1.34-1.34A1.34,1.34,0,0,0,111.36,152.81Z"/><path class="rocket-cls-13" d="M110.46,137.59c2.88,0,2.88-4.47,0-4.47S107.58,137.59,110.46,137.59Z"/><path class="rocket-cls-13" d="M90.79,145.66c2.87,0,2.88-4.47,0-4.47S87.9,145.66,90.79,145.66Z"/><path class="rocket-cls-13" d="M174,166.8c2.87,0,2.88-4.47,0-4.47S171.06,166.8,174,166.8Z"/><path class="rocket-cls-13" d="M185.57,179.76c3.46,0,3.46-5.36,0-5.36S182.11,179.76,185.57,179.76Z"/><path class="rocket-cls-13" d="M187.36,163.67a1.79,1.79,0,0,0,0-3.58h0a1.79,1.79,0,0,0,0,3.58Z"/><path class="rocket-cls-13" d="M285.74,234.64a1.79,1.79,0,1,0-1.79-1.79A1.79,1.79,0,0,0,285.74,234.64Z"/><path class="rocket-cls-13" d="M310.78,236c2.88,0,2.88-4.47,0-4.47S307.9,236,310.78,236Z"/><path class="rocket-cls-13" d="M293.79,259.23c2.88,0,2.88-4.47,0-4.47S290.91,259.23,293.79,259.23Z"/><path class="rocket-cls-13" d="M318.83,166.23c4,0,4-6.26,0-6.26S314.83,166.23,318.83,166.23Z"/><path class="rocket-cls-13" d="M302.73,166.23c2.88,0,2.88-4.47,0-4.47S299.85,166.23,302.73,166.23Z"/><path class="rocket-cls-13" d="M310.78,174.28c2.88,0,2.88-4.47,0-4.47S307.9,174.28,310.78,174.28Z"/><path class="rocket-cls-13" d="M243.71,126c2.88,0,2.88-4.48,0-4.48S240.83,126,243.71,126Z"/><path class="rocket-cls-13" d="M212.41,75c2.88,0,2.88-4.47,0-4.47S209.53,75,212.41,75Z"/><path class="rocket-cls-13" d="M149.81,270c2.88,0,2.88-4.48,0-4.48S146.93,270,149.81,270Z"/><path class="rocket-cls-13" d="M142.66,262.36a1.79,1.79,0,1,0-1.65-1.65A1.78,1.78,0,0,0,142.66,262.36Z"/><path class="rocket-cls-13" d="M81,272.2a1.79,1.79,0,1,0-1.79-1.79A1.79,1.79,0,0,0,81,272.2Z"/><path class="rocket-cls-13" d="M67.53,258.34c2.88,0,2.89-4.47,0-4.47S64.65,258.34,67.53,258.34Z"/><path class="rocket-cls-13" d="M66.64,280.25c3.45,0,3.46-5.37,0-5.37S63.18,280.25,66.64,280.25Z"/><path class="rocket-cls-13" d="M175.74,312.44c3.46,0,3.46-5.36,0-5.36S172.29,312.44,175.74,312.44Z"/><path class="rocket-cls-13" d="M278.59,319.59c3.45,0,3.46-5.37,0-5.37S275.13,319.59,278.59,319.59Z"/><path class="rocket-cls-13" d="M274.12,308.87a1.79,1.79,0,1,0-1.79-1.79A1.79,1.79,0,0,0,274.12,308.87Z"/><path class="rocket-cls-13" d="M383.26,229.28a1.79,1.79,0,1,0-1.79-1.79A1.79,1.79,0,0,0,383.26,229.28Z"/><path class="rocket-cls-13" d="M408.26,194.4a1.79,1.79,0,1,0-1.79-1.79A1.79,1.79,0,0,0,408.26,194.4Z"/><path class="rocket-cls-13" d="M421.67,245.82c2.88,0,2.89-4.47,0-4.47S418.79,245.82,421.67,245.82Z"/><path class="rocket-cls-13" d="M377.85,323.59c2.88,0,2.89-4.47,0-4.47S375,323.59,377.85,323.59Z"/><path class="rocket-cls-13" d="M398.42,304.4a1.79,1.79,0,1,0-1.79-1.79A1.79,1.79,0,0,0,398.42,304.4Z"/><path class="rocket-cls-13" d="M407.36,337.48a1.79,1.79,0,1,0-1.65-1.65A1.78,1.78,0,0,0,407.36,337.48Z"/><path class="rocket-cls-13" d="M321.51,380.41a1.79,1.79,0,1,0-1.79-1.79A1.79,1.79,0,0,0,321.51,380.41Z"/><path class="rocket-cls-13" d="M205.26,375.94a1.79,1.79,0,1,0-1.79-1.79A1.79,1.79,0,0,0,205.26,375.94Z"/><path class="rocket-cls-13" d="M229.4,70.59a1.34,1.34,0,1,0-1.34-1.34,1.34,1.34,0,0,0,1.34,1.34Z"/><path class="rocket-cls-13" d="M329.56,70.59a1.34,1.34,0,1,0-1.34-1.34,1.34,1.34,0,0,0,1.34,1.34Z"/><path class="rocket-cls-13" d="M262.49,117.94a1.35,1.35,0,1,0-1.23-1.23A1.35,1.35,0,0,0,262.49,117.94Z"/><path class="rocket-cls-13" d="M198.43,62h0a10,10,0,0,0,6.42,6.43h0a.29.29,0,0,1,0,.55h0a10,10,0,0,0-6.42,6.43h0a.29.29,0,0,1-.55,0h0A10,10,0,0,0,191.45,69h0a.29.29,0,0,1,0-.55h0A10,10,0,0,0,197.88,62h0a.29.29,0,0,1,.55,0Z"/><path class="rocket-cls-13" d="M58.26,144h0a8.47,8.47,0,0,0,5.44,5.45h0a.24.24,0,0,1,.16.3.22.22,0,0,1-.16.16h0a8.47,8.47,0,0,0-5.44,5.45h0a.25.25,0,0,1-.32.15.28.28,0,0,1-.15-.15h0a8.45,8.45,0,0,0-5.44-5.45h0a.24.24,0,0,1-.16-.3.22.22,0,0,1,.16-.16h0A8.45,8.45,0,0,0,57.79,144h0a.25.25,0,0,1,.32-.15A.28.28,0,0,1,58.26,144Z"/><path class="rocket-cls-13" d="M363.66,228.07h0a8.48,8.48,0,0,0,5.44,5.44h0a.25.25,0,0,1,.15.32.28.28,0,0,1-.15.15h0a8.48,8.48,0,0,0-5.44,5.44h0a.25.25,0,0,1-.32.15.28.28,0,0,1-.15-.15h0a8.48,8.48,0,0,0-5.44-5.44h0a.25.25,0,0,1-.15-.32.28.28,0,0,1,.15-.15h0a8.44,8.44,0,0,0,5.44-5.44h0a.25.25,0,0,1,.32-.15A.28.28,0,0,1,363.66,228.07Z"/><path class="rocket-cls-13" d="M222.44,311.24h0a8.48,8.48,0,0,0,5.44,5.44h0a.25.25,0,0,1,.15.32.28.28,0,0,1-.15.15h0a8.48,8.48,0,0,0-5.44,5.44h0a.25.25,0,0,1-.32.15.28.28,0,0,1-.15-.15h0a8.48,8.48,0,0,0-5.44-5.44h0a.25.25,0,0,1-.15-.32.28.28,0,0,1,.15-.15h0a8.44,8.44,0,0,0,5.44-5.44h0a.25.25,0,0,1,.32-.15A.28.28,0,0,1,222.44,311.24Z"/><path class="rocket-cls-13" d="M245.93,366.41h0a6.48,6.48,0,0,0,4.2,4.2h0a.19.19,0,0,1,.12.24.18.18,0,0,1-.12.12h0a6.48,6.48,0,0,0-4.2,4.2h0a.19.19,0,0,1-.24.12.18.18,0,0,1-.12-.12h0a6.56,6.56,0,0,0-4.2-4.2h0a.19.19,0,0,1-.12-.24.18.18,0,0,1,.12-.12h0a6.56,6.56,0,0,0,4.2-4.2h0a.19.19,0,0,1,.24-.12A.18.18,0,0,1,245.93,366.41Z"/><path class="rocket-cls-13" d="M345.56,368.59h0a6.52,6.52,0,0,0,4.2,4.2h0a.19.19,0,0,1,.12.24.18.18,0,0,1-.12.12h0a6.5,6.5,0,0,0-4.2,4.19h0a.19.19,0,0,1-.24.12.18.18,0,0,1-.12-.12h0a6.52,6.52,0,0,0-4.2-4.19h0a.19.19,0,0,1-.12-.24.18.18,0,0,1,.12-.12h0a6.56,6.56,0,0,0,4.2-4.2h0a.19.19,0,0,1,.24-.12A.18.18,0,0,1,345.56,368.59Z"/><path class="rocket-cls-13" d="M233.92,375.43h0a5.11,5.11,0,0,0,3.28,3.28h0a.15.15,0,0,1,.09.19.2.2,0,0,1-.09.09h0a5.07,5.07,0,0,0-3.28,3.27h0a.15.15,0,0,1-.19.09.2.2,0,0,1-.09-.09h0a5.08,5.08,0,0,0-3.27-3.27h0a.15.15,0,0,1-.09-.19.2.2,0,0,1,.09-.09h0a5.12,5.12,0,0,0,3.27-3.28h0a.15.15,0,0,1,.19-.09A.2.2,0,0,1,233.92,375.43Z"/><path class="rocket-cls-13" d="M70.26,347.65h0a8.47,8.47,0,0,0,5.44,5.45h0a.24.24,0,0,1,.16.3.22.22,0,0,1-.16.16h0A8.49,8.49,0,0,0,70.26,359h0a.25.25,0,0,1-.32.15.28.28,0,0,1-.15-.15h0a8.46,8.46,0,0,0-5.42-5.42h0a.24.24,0,0,1-.16-.3.22.22,0,0,1,.16-.16h0a8.45,8.45,0,0,0,5.44-5.45h0a.25.25,0,0,1,.32-.14A.24.24,0,0,1,70.26,347.65Z"/><path class="rocket-cls-13" d="M55.34,340.14h0A6,6,0,0,0,59.26,344h0a.19.19,0,0,1,.11.23.2.2,0,0,1-.11.11h0a6,6,0,0,0-3.89,3.89h0a.19.19,0,0,1-.23.11.2.2,0,0,1-.11-.11h0a6,6,0,0,0-3.89-3.89h0a.19.19,0,0,1-.11-.23.2.2,0,0,1,.11-.11h0A6,6,0,0,0,55,340.14h0a.18.18,0,0,1,.25-.06Z"/><path class="rocket-cls-13" d="M294.65,198.2h0a7.79,7.79,0,0,0,5,5h0a.22.22,0,0,1,0,.42h0a7.7,7.7,0,0,0-5,5h0a.22.22,0,0,1-.42,0h0a7.7,7.7,0,0,0-5-5h0a.22.22,0,0,1,0-.42h0a7.79,7.79,0,0,0,5-5h0a.22.22,0,0,1,.42,0Z"/><path class="rocket-cls-13" d="M308.7,192.34h0a6.34,6.34,0,0,0,4.08,4.08h0a.18.18,0,0,1,0,.35h0a6.38,6.38,0,0,0-4.08,4.08h0a.18.18,0,0,1-.35,0h0a6.34,6.34,0,0,0-4.08-4.08h0a.18.18,0,0,1,0-.35h0a6.29,6.29,0,0,0,4.08-4.08h0a.18.18,0,0,1,.35,0Z"/><path class="rocket-cls-13" d="M216.15,42.49h0a6.1,6.1,0,0,0,3.94,3.94h0a.19.19,0,0,1,.11.23.2.2,0,0,1-.11.11h0a6.1,6.1,0,0,0-3.94,3.94h0a.19.19,0,0,1-.23.11.2.2,0,0,1-.11-.11h0a6.1,6.1,0,0,0-3.94-3.94h0a.19.19,0,0,1-.11-.23.2.2,0,0,1,.11-.11h0a6.1,6.1,0,0,0,3.94-3.94h0a.19.19,0,0,1,.23-.11A.2.2,0,0,1,216.15,42.49Z"/><path class="rocket-cls-13" d="M272.92,136h0a6.1,6.1,0,0,0,3.94,3.94h0a.19.19,0,0,1,.11.23.2.2,0,0,1-.11.11h0a6.14,6.14,0,0,0-3.94,3.94h0a.19.19,0,0,1-.23.11.2.2,0,0,1-.11-.11h0a6.1,6.1,0,0,0-3.94-3.94h0a.19.19,0,0,1-.11-.23.2.2,0,0,1,.11-.11h0a6.1,6.1,0,0,0,3.94-3.94h0a.19.19,0,0,1,.23-.11A.2.2,0,0,1,272.92,136Z"/><path class="rocket-cls-13" d="M221,155.59h0a4.25,4.25,0,0,0,2.73,2.72h0a.12.12,0,0,1,.07.17.12.12,0,0,1-.07.07h0a4.25,4.25,0,0,0-2.73,2.72h0a.12.12,0,0,1-.15.08.11.11,0,0,1-.08-.08h0a4.24,4.24,0,0,0-2.72-2.72h0a.12.12,0,0,1-.07-.17.12.12,0,0,1,.07-.07h0a4.24,4.24,0,0,0,2.72-2.72h0a.12.12,0,0,1,.15-.08A.11.11,0,0,1,221,155.59Z"/></g></g></g></svg>